<svg width="315" height="315" viewBox="0 0 315 315" fill="none" xmlns="http://www.w3.org/2000/svg">
<path class="logo" d="M10 250.5V66H67V198.5H101C109 221.5 133 241.5 153 250.5H10Z"/>
<path class="logo" d="M305 66L268.5 113.5H206.5C206.5 113.5 158.5 117.5 158 158.5C157.5 199.5 206.5 202.5 206.5 202.5H251V176.5H191L226.5 135H300.5V250.5H191C191 250.5 105.5 240.5 103 158.5C100.5 76.5 191 66 191 66H305Z"/>
<path class="logo" d="M10 250.5V66H67V198.5H101C109 221.5 133 241.5 153 250.5M10 250.5C87.5 250.5 125 250.5 153 250.5M10 250.5H153M305 66L268.5 113.5H206.5C206.5 113.5 158.5 117.5 158 158.5C157.5 199.5 206.5 202.5 206.5 202.5H251V176.5H191L226.5 135H300.5V250.5H191C191 250.5 105.5 240.5 103 158.5C100.5 76.5 191 66 191 66H305Z"/>
<style>
    .logo {
      fill: #000;
    }
    @media (prefers-color-scheme: dark) {
      .logo {
        fill: #fff;
      }
    }
  </style>
</svg>
